<?xml version="1.0" encoding="UTF-8" standalone="no"?>
<svg width="200px" height="400px" viewBox="0 0 200 400" version="1.1" xmlns="http://www.w3.org/2000/svg" xmlns:xlink="http://www.w3.org/1999/xlink" xmlns:sketch="http://www.bohemiancoding.com/sketch/ns">
    <!-- Generator: Sketch 3.2 (9961) - http://www.bohemiancoding.com/sketch -->
    <title>Yellow Feather Logo</title>
    <desc>Created with Sketch.</desc>
    <defs></defs>
    <g id="Page-1" stroke="none" stroke-width="1" fill="none" fill-rule="evenodd" sketch:type="MSPage">
        <g id="logo-lg" sketch:type="MSLayerGroup" transform="translate(34.000000, 56.000000)" fill="#F8992B">
            <g id="Page-1" sketch:type="MSShapeGroup">
                <g id="logo-lg">
                    <path d="M55.2884414,2.20133982 C61.1559604,0.818781915 67.2615662,0.771107505 73.2401924,1.34849759 C78.0389658,2.22252845 82.8271575,3.19720529 87.5624411,4.38906556 C93.0437302,5.62860023 97.8954118,8.61619664 102.604241,11.5614158 C107.69401,15.1634824 112.736161,18.9668409 116.825964,23.7183905 C120.60361,27.8448756 123.603504,32.622911 126.15897,37.5863468 C127.730344,40.6110233 128.449895,43.9641236 129.476314,47.190092 C130.264646,49.8015903 131.169376,52.3971971 131.566188,55.1093413 C132.047652,58.4465501 133.005291,61.7307873 132.973546,65.1315619 C132.968255,84.7575276 132.925929,104.38879 133,124.014756 C132.962964,125.090079 132.93651,126.18659 132.650806,127.235427 C130.338718,128.247184 127.735634,128.019407 125.301857,128.496151 C117.995236,130.00584 110.572216,130.832197 103.260303,132.304806 C98.6202541,132.91398 94.0066594,133.745633 89.530626,135.128191 C100.546112,136.812687 111.445201,139.175219 122.492432,140.684908 C125.931465,141.410619 129.38637,142.062169 132.899474,142.289947 C133.052908,162.488006 132.910056,182.691361 132.973546,202.894717 C133.089944,207.821073 131.227575,212.461382 130.037141,217.165257 C128.35466,223.696652 125.307148,229.777788 121.778172,235.49342 C119.265032,239.577528 115.598494,242.73993 112.297023,246.156596 C108.524668,250.050006 104.085671,253.180626 99.7842344,256.438378 C92.6416279,261.920935 84.3297503,265.72959 77.5680828,271.736566 C74.6158055,274.438116 71.3143341,277.054912 69.6688892,280.826487 C68.4943272,283.512146 67.531398,286.287856 66.4150351,289 C65.5790856,285.334368 64.6214472,281.557495 62.2723233,278.532818 C59.5581329,275.063181 56.0820644,272.292768 52.6747765,269.543543 C47.0770894,264.961503 40.9027029,261.18463 34.8023879,257.3283 C32.4321007,255.860987 30.194084,254.192383 28.109501,252.338378 C25.4058922,249.917578 22.4007067,247.851686 19.8240775,245.287863 C17.6601323,243.190189 15.8189271,240.795874 13.9406861,238.443936 C9.45407106,233.009053 6.3642324,226.520036 4.32197603,219.797944 C3.51777145,217.265903 2.52309736,214.802726 1.81941835,212.238902 C1.14219344,209.796912 1.23742819,207.233089 1.42260688,204.732831 C8.41177959,204.589807 15.2951359,203.207249 22.157329,201.994201 C29.9983236,200.887095 37.7440836,199.154925 45.6062415,198.180248 C45.5956599,197.98955 45.5850782,197.613452 45.5744966,197.422754 C38.1144409,196.866553 30.8184007,195.081411 23.4324165,193.974305 C15.6337484,192.650016 7.87740681,191.076761 0.0311213161,190.086192 C-0.0164960605,153.31333 -0.000623601627,116.535171 0.0205396769,79.7570116 C14.6708192,76.96541 29.45866,74.9736791 44.124812,72.2880206 C41.2095704,71.2974523 38.230839,70.4710959 35.1780361,70.0632148 C25.9667191,68.7124398 16.8453461,66.8319492 7.62344747,65.5765231 C5.57060946,65.2322079 3.18974063,65.338151 1.54429573,63.8761357 C0.544330819,60.9838882 1.27446393,57.7632169 1.93052556,54.8497807 C3.52306227,49.6267841 4.29023111,44.1124439 6.67109994,39.1596024 C8.64986648,35.1390604 10.6339238,31.0443583 13.6655635,27.6965552 C18.0886887,22.4417757 23.0144417,17.6319574 28.3528787,13.3147747 C36.1356744,7.27071882 45.5692058,3.57860058 55.2884414,2.20133982 L55.2884414,2.20133982 L55.2884414,2.20133982 Z" id="Shape"></path>
                </g>
            </g>
        </g>
    </g>
</svg>
